<svg xmlns="http://www.w3.org/2000/svg" width="84.96" height="29.272" viewBox="0 0 84.96 29.272">
  <g id="download_2_" data-name="download (2)" transform="translate(0.002)">
    <path id="Path_1" data-name="Path 1" d="M169.932,37.821c-.34-.039-.681-.074-1.021-.117a8.055,8.055,0,0,1-2.424-.569,3.681,3.681,0,0,1-.887-.565,1.694,1.694,0,0,1-.183-2.28,1.6,1.6,0,0,1,2.013-.627,8.525,8.525,0,0,0,2.436.727,6.341,6.341,0,0,0,3-.358,2.954,2.954,0,0,0,1.833-2.5c.081-.515.1-1.041.144-1.561l-.073-.029a1.29,1.29,0,0,0-.137.118,5.464,5.464,0,0,1-3.477,1.742,6.82,6.82,0,0,1-3.02-.126,5.12,5.12,0,0,1-3.605-3.963,7.891,7.891,0,0,1-.206-1.789c-.02-2.991-.01-5.981-.009-8.972A1.847,1.847,0,1,1,168,16.947c.006,2.663-.006,5.327.009,7.99a6.685,6.685,0,0,0,.163,1.43,2.539,2.539,0,0,0,1.96,2.012,4.63,4.63,0,0,0,2.325.024,2.968,2.968,0,0,0,2.239-2.614,9.3,9.3,0,0,0,.065-1.133c.006-2.516,0-5.033.006-7.55a3.093,3.093,0,0,1,.066-.692,1.835,1.835,0,0,1,3.614.411c.005,4.594.011,9.188-.007,13.782a8.615,8.615,0,0,1-.57,3.081,6.043,6.043,0,0,1-3.805,3.546,9.114,9.114,0,0,1-2.672.531,2.747,2.747,0,0,0-.326.056Z" transform="translate(-93.497 -8.549)" fill="#7c22ae" fill-rule="evenodd"/>
    <path id="Path_2" data-name="Path 2" d="M0,27.017a.869.869,0,0,0,.063-.135,1.656,1.656,0,0,1,2.7-.843c.2.166.377.353.565.531A5.343,5.343,0,0,0,7.24,28.085,5.106,5.106,0,0,0,8.747,27.8a1.494,1.494,0,0,0,1.018-1.5,1.52,1.52,0,0,0-.88-1.463,15.765,15.765,0,0,0-2.762-.986,28.094,28.094,0,0,1-2.7-.938A4.113,4.113,0,0,1,.9,20.3a4.509,4.509,0,0,1,2.415-5.636,7.016,7.016,0,0,1,3.968-.787,8.852,8.852,0,0,1,3.289.89,4.867,4.867,0,0,1,1.793,1.488A1.537,1.537,0,0,1,11.3,18.765a1.459,1.459,0,0,1-1.328-.486,4.129,4.129,0,0,0-3.106-1.4,6.6,6.6,0,0,0-1.53.156,1.365,1.365,0,0,0-1.1,1.137,1.522,1.522,0,0,0,.587,1.673,4.537,4.537,0,0,0,1.1.558c1.254.419,2.525.788,3.782,1.2a5.373,5.373,0,0,1,2.119,1.244,4.221,4.221,0,0,1,1.248,2.915A4.717,4.717,0,0,1,9.928,30.42a8.039,8.039,0,0,1-4.274.533,9.751,9.751,0,0,1-3.017-.838A5.875,5.875,0,0,1,.4,28.282a4.83,4.83,0,0,1-.4-.85C0,27.293,0,27.155,0,27.017Z" transform="translate(0 -7.882)" fill="#7c22ae" fill-rule="evenodd"/>
    <path id="Path_3" data-name="Path 3" d="M41.88,0c-.229.863-.461,1.726-.686,2.59Q38.648,12.354,36.1,22.118c-.08.306-.162.612-.245.922H32.064c.128-.5.249-.99.376-1.476Q35.219,10.907,38,.251c.022-.083.036-.168.053-.251Z" transform="translate(-18.246)" fill="#7c22ae" fill-rule="evenodd"/>
    <path id="Path_4" data-name="Path 4" d="M63.754,29.318a6.355,6.355,0,0,1-1.838,1.4,6.971,6.971,0,0,1-7.9-1.1,8.321,8.321,0,0,1-2.6-4.956,10.181,10.181,0,0,1,.577-5.6,7.264,7.264,0,0,1,11.388-3.153c.115.087.224.182.366.3.03-.178.05-.317.076-.455A1.791,1.791,0,0,1,65.717,14.3a1.751,1.751,0,0,1,1.722,1.607,5.669,5.669,0,0,1,.03.567q0,6.321,0,12.643a2.007,2.007,0,0,1-.509,1.5,1.81,1.81,0,0,1-1.9.476,1.7,1.7,0,0,1-1.228-1.367C63.807,29.61,63.788,29.492,63.754,29.318Zm-8.976-6.395c.046.418.07.84.143,1.254a4.545,4.545,0,0,0,3.85,3.9,4.24,4.24,0,0,0,3.755-1.3,5.218,5.218,0,0,0,1.385-3.261,5.858,5.858,0,0,0-1.169-4.247,4.362,4.362,0,0,0-6.674-.082A5.861,5.861,0,0,0,54.778,22.923Z" transform="translate(-29.174 -8.13)" fill="#7c22ae" fill-rule="evenodd"/>
    <path id="Path_5" data-name="Path 5" d="M129.488,8.915c.424-.395.823-.8,1.256-1.164A5.6,5.6,0,0,1,133.6,6.4a6.54,6.54,0,0,1,3.519.411,3.59,3.59,0,0,1,1.779,1.66,7.626,7.626,0,0,1,.878,2.92c.082.847.115,1.7.121,2.552.015,2.422,0,4.844.009,7.266a1.941,1.941,0,0,1-.544,1.481,1.859,1.859,0,0,1-2.038.362,1.689,1.689,0,0,1-1.08-1.621c-.013-2.663.009-5.326-.019-7.989a7.335,7.335,0,0,0-.25-1.831,2.341,2.341,0,0,0-2.32-1.891,4.505,4.505,0,0,0-1.69.141,3.316,3.316,0,0,0-2.415,2.78,4.509,4.509,0,0,0-.056.822q-.007,3.878,0,7.757a2.025,2.025,0,0,1-.343,1.221,1.841,1.841,0,0,1-2.091.671,1.819,1.819,0,0,1-1.258-1.715c0-.069,0-.137,0-.206q0-9.451.008-18.9a2.611,2.611,0,0,1,.187-.976A1.757,1.757,0,0,1,127.845.279a1.767,1.767,0,0,1,1.6,1.512,3.415,3.415,0,0,1,.041.513q0,3.181,0,6.361C129.488,8.757,129.488,8.849,129.488,8.915Z" transform="translate(-71.582 -0.149)" fill="#7c22ae" fill-rule="evenodd"/>
    <path id="Path_6" data-name="Path 6" d="M98.474,31.517a9.473,9.473,0,0,1-4.792-1.291,6.029,6.029,0,0,1-1.667-1.566,1.527,1.527,0,0,1,.1-1.949A1.592,1.592,0,0,1,94.14,26.3a3.62,3.62,0,0,1,.637.521,5.607,5.607,0,0,0,2.981,1.645,5.176,5.176,0,0,0,2.477-.091,1.662,1.662,0,0,0,1.146-2.158,1.5,1.5,0,0,0-.8-.9,14.653,14.653,0,0,0-2.588-.937c-.966-.3-1.943-.593-2.873-.988A4.1,4.1,0,0,1,92.6,20.78a4.511,4.511,0,0,1,2.416-5.636,7.023,7.023,0,0,1,3.968-.787,8.843,8.843,0,0,1,3.289.891,4.866,4.866,0,0,1,1.792,1.489A1.538,1.538,0,0,1,103,19.244a1.46,1.46,0,0,1-1.327-.487,4.13,4.13,0,0,0-3.106-1.4,6.574,6.574,0,0,0-1.53.156,1.365,1.365,0,0,0-1.1,1.139,1.521,1.521,0,0,0,.589,1.673,4.514,4.514,0,0,0,1.1.557c1.214.4,2.445.756,3.662,1.154a5.4,5.4,0,0,1,2.521,1.595,4.247,4.247,0,0,1,.963,2.613,4.7,4.7,0,0,1-3.118,4.65A7.785,7.785,0,0,1,98.474,31.517Z" transform="translate(-52.187 -8.155)" fill="#7c22ae" fill-rule="evenodd"/>
  </g>
</svg>
